<?xml version="1.0" encoding="utf-8"?>
<!-- Generator: Adobe Illustrator 21.1.0, SVG Export Plug-In . SVG Version: 6.00 Build 0)  -->
<svg version="1.1" id="Layer_1" xmlns="http://www.w3.org/2000/svg" xmlns:xlink="http://www.w3.org/1999/xlink" x="0px" y="0px"
	 viewBox="0 0 290 260" style="enable-background:new 0 0 290 260;" xml:space="preserve">
<style type="text/css">
	.st0{fill:#628090;}
</style>
<g>
	<g>
		<path class="st0" d="M138.5,3.8h12.6v1.4h-11v8.7h9.2v1.4h-9.2v10.1h11.4v1.4h-13V3.8z"/>
	</g>
	<g>
		<g>
			<path class="st0" d="M2.2,244.2c0-1.8,0.2-3.5,0.7-4.9c0.5-1.5,1.1-2.7,2-3.8c0.9-1,1.9-1.8,3.1-2.4c1.2-0.5,2.6-0.8,4-0.8
				c1.3,0,2.5,0.3,3.5,0.8c1,0.6,1.8,1.2,2.4,1.9l-1,1.1c-0.6-0.7-1.3-1.3-2.2-1.7c-0.8-0.4-1.8-0.6-2.8-0.6c-1.3,0-2.4,0.2-3.4,0.7
				c-1,0.5-1.9,1.2-2.6,2.1c-0.7,0.9-1.3,2-1.6,3.3c-0.4,1.3-0.6,2.7-0.6,4.3s0.2,3.1,0.6,4.4c0.4,1.3,0.9,2.4,1.6,3.3
				c0.7,0.9,1.5,1.6,2.5,2.1c1,0.5,2.1,0.8,3.3,0.8c1.2,0,2.2-0.2,3.2-0.7c0.9-0.5,1.8-1.2,2.6-2.1l1,1c-0.9,1-1.9,1.8-3,2.4
				c-1.1,0.6-2.4,0.9-3.9,0.9c-1.4,0-2.7-0.3-3.9-0.8S5.7,254,4.8,253c-0.9-1-1.5-2.3-2-3.8C2.4,247.7,2.2,246.1,2.2,244.2z"/>
		</g>
		<g>
			<path class="st0" d="M272.4,232.3h1.7l9.7,16.3l2.6,4.6h0.1c0-1.1-0.1-2.2-0.1-3.4c0-1.1-0.1-2.2-0.1-3.4v-14.1h1.5v23.1h-1.7
				l-9.7-16.3l-2.6-4.6h-0.1c0,1.1,0.1,2.2,0.1,3.3c0,1.1,0.1,2.2,0.1,3.3v14.3h-1.5V232.3z"/>
		</g>
	</g>
</g>
</svg>
